<svg xmlns="http://www.w3.org/2000/svg" version="1.1" xmlns:xlink="http://www.w3.org/1999/xlink" xmlns:svgjs="http://svgjs.dev/svgjs" width="1440" height="560" preserveAspectRatio="none" viewBox="0 0 1440 560"><g mask="url(&quot;#SvgjsMask1000&quot;)" fill="none"><rect width="1440" height="560" x="0" y="0" fill="#0e2a47"></rect><path d="M 0,67 C 57.6,100 172.8,226.8 288,232 C 403.2,237.2 460.8,103.2 576,93 C 691.2,82.8 748.8,199.2 864,181 C 979.2,162.8 1036.8,-16.8 1152,2 C 1267.2,20.8 1382.4,220.4 1440,275L1440 560L0 560z" fill="#184a7e"></path><path d="M 0,527 C 96,492.8 288,366 480,356 C 672,346 768,489.8 960,477 C 1152,464.2 1344,329 1440,292L1440 560L0 560z" fill="#2264ab"></path></g><defs><mask id="SvgjsMask1000"><rect width="1440" height="560" fill="#ffffff"></rect></mask></defs></svg>